<svg xmlns="http://www.w3.org/2000/svg" xmlns:xlink="http://www.w3.org/1999/xlink" width="1440" height="863.27"><rect width="1440" height="863.27" rx="5" ry="5" class="a"/><svg y="0%" x="0%"><circle cx="20" cy="20" r="6" fill="#ff5f58"/><circle cx="40" cy="20" r="6" fill="#ffbd2e"/><circle cx="60" cy="20" r="6" fill="#18c132"/></svg><svg height="803.27" viewBox="0 0 140 80.327" width="1400" x="15" xmlns="http://www.w3.org/2000/svg" xmlns:xlink="http://www.w3.org/1999/xlink" y="50"><style>@keyframes l{0%{transform:translateX(0)}.1%{transform:translateX(-140px)}.12%{transform:translateX(-280px)}1.12%{transform:translateX(-420px)}1.2%{transform:translateX(-560px)}7.13%{transform:translateX(-700px)}7.19%{transform:translateX(-840px)}27.03%{transform:translateX(-980px)}27.06%{transform:translateX(-1120px)}36.38%{transform:translateX(-1260px)}36.42%{transform:translateX(-1400px)}36.43%{transform:translateX(-1540px)}49.57%{transform:translateX(-1680px)}49.6%{transform:translateX(-1820px)}72.36%{transform:translateX(-1960px)}72.43%{transform:translateX(-2100px)}79.43%{transform:translateX(-2240px)}79.49%{transform:translateX(-2380px)}93.44%{transform:translateX(-2520px)}93.52%{transform:translateX(-2660px)}93.53%{transform:translateX(-2800px)}94.12%{transform:translateX(-2940px)}94.13%{transform:translateX(-3080px)}to{transform:translateX(-3220px)}}.a{fill:#282d35}.f,.g{white-space:pre}.f{fill:#a8cc8c;font-weight:700}.g{fill:#b9c0cb}.h{fill:#71bef2;font-weight:700}.h,.i,.j{white-space:pre}.i{fill:#d290e4;font-weight:700}.j{fill:#a8cc8c}</style><g font-family="Monaco,Consolas,Menlo,'Bitstream Vera Sans Mono','Powerline Symbols',monospace" font-size="1.67"><defs><symbol id="1"><text y="1.67" class="f">guillermo@pop-os</text><text x="16.032" y="1.67" class="g">:</text><text x="17.034" y="1.67" class="h">~/Downloads/Advanced_Engine_Management_Guillermo</text><text x="65.13" y="1.67" class="g">$</text><text x="67.134" y="1.67" class="g">ansible-playbook</text><text x="85.17" y="1.67" class="g">ansibleplaybook.yml</text><text x="105.21" y="1.67" class="g">--ask-become-pass</text></symbol><symbol id="2"><text y="1.67" class="g">BECOME</text><text x="7.014" y="1.67" class="g">password:</text></symbol><symbol id="3"><text y="1.67" class="i">[WARNING]:</text><text x="11.022" y="1.67" class="i">No</text><text x="14.028" y="1.67" class="i">inventory</text><text x="24.048" y="1.67" class="i">was</text><text x="28.056" y="1.67" class="i">parsed,</text><text x="36.072" y="1.67" class="i">only</text><text x="41.082" y="1.67" class="i">implicit</text><text x="50.1" y="1.67" class="i">localhost</text><text x="60.12" y="1.67" class="i">is</text><text x="63.126" y="1.67" class="i">available</text></symbol><symbol id="4"><text y="1.67" class="i">[WARNING]:</text><text x="11.022" y="1.67" class="i">provided</text><text x="20.04" y="1.67" class="i">hosts</text><text x="26.052" y="1.67" class="i">list</text><text x="31.062" y="1.67" class="i">is</text><text x="34.068" y="1.67" class="i">empty,</text><text x="41.082" y="1.67" class="i">only</text><text x="46.092" y="1.67" class="i">localhost</text><text x="56.112" y="1.67" class="i">is</text><text x="59.118" y="1.67" class="i">available.</text><text x="70.14" y="1.67" class="i">Note</text><text x="75.15" y="1.67" class="i">that</text><text x="80.16" y="1.67" class="i">the</text><text x="84.168" y="1.67" class="i">implicit</text><text x="93.186" y="1.67" class="i">localhost</text><text x="103.206" y="1.67" class="i">does</text><text x="108.216" y="1.67" class="i">not</text><text x="112.224" y="1.67" class="i">match</text><text x="118.236" y="1.67" class="i">&apos;all&apos;</text></symbol><symbol id="5"><text y="1.67" class="g">PLAY</text><text x="5.01" y="1.67" class="g">[My</text><text x="9.018" y="1.67" class="g">first</text><text x="15.03" y="1.67" class="g">play]</text><text x="21.042" y="1.67" class="g">***********************************************************************************************************************</text></symbol><symbol id="6"><text y="1.67" class="g">TASK</text><text x="5.01" y="1.67" class="g">[Gathering</text><text x="16.032" y="1.67" class="g">Facts]</text><text x="23.046" y="1.67" class="g">*********************************************************************************************************************</text></symbol><symbol id="7"><text y="1.67" class="j">ok:</text><text x="4.008" y="1.67" class="j">[localhost]</text></symbol><symbol id="8"><text y="1.67" class="g">TASK</text><text x="5.01" y="1.67" class="g">[Update</text><text x="13.026" y="1.67" class="g">apt</text><text x="17.034" y="1.67" class="g">cache]</text><text x="24.048" y="1.67" class="g">********************************************************************************************************************</text></symbol><symbol id="9"><text y="1.67" class="g">TASK</text><text x="5.01" y="1.67" class="g">[Install</text><text x="14.028" y="1.67" class="g">required</text><text x="23.046" y="1.67" class="g">packages]</text><text x="33.066" y="1.67" class="g">***********************************************************************************************************</text></symbol><symbol id="10"><text y="1.67" class="g">TASK</text><text x="5.01" y="1.67" class="g">[Install</text><text x="14.028" y="1.67" class="g">virt-manager,</text><text x="28.056" y="1.67" class="g">libguestfs-tools,</text><text x="46.092" y="1.67" class="g">and</text><text x="50.1" y="1.67" class="g">gnome-boxes]</text><text x="63.126" y="1.67" class="g">*****************************************************************************</text></symbol><symbol id="11"><text y="1.67" class="g">TASK</text><text x="5.01" y="1.67" class="g">[Install</text><text x="14.028" y="1.67" class="g">qemu,</text><text x="20.04" y="1.67" class="g">qemu-kvm,</text><text x="30.06" y="1.67" class="g">and</text><text x="34.068" y="1.67" class="g">bridge-utils]</text><text x="48.096" y="1.67" class="g">********************************************************************************************</text></symbol><symbol id="12"><text y="1.67" class="g">TASK</text><text x="5.01" y="1.67" class="g">[Download</text><text x="15.03" y="1.67" class="g">.deb</text><text x="20.04" y="1.67" class="g">Package]</text><text x="29.058" y="1.67" class="g">***************************************************************************************************************</text></symbol><symbol id="13"><text y="1.67" class="g">TASK</text><text x="5.01" y="1.67" class="g">[Install</text><text x="14.028" y="1.67" class="g">.deb</text><text x="19.038" y="1.67" class="g">Package]</text><text x="28.056" y="1.67" class="g">****************************************************************************************************************</text></symbol><symbol id="14"><text y="1.67" class="g">PLAY</text><text x="5.01" y="1.67" class="g">RECAP</text><text x="11.022" y="1.67" class="g">*********************************************************************************************************************************</text></symbol><symbol id="15"><text y="1.67" class="j">localhost</text><text x="27.054" y="1.67" class="g">:</text><text x="29.058" y="1.67" class="j">ok=7</text><text x="37.074" y="1.67" class="g">changed=0</text><text x="50.1" y="1.67" class="g">unreachable=0</text><text x="67.134" y="1.67" class="g">failed=0</text><text x="79.158" y="1.67" class="g">skipped=0</text><text x="92.184" y="1.67" class="g">rescued=0</text><text x="105.21" y="1.67" class="g">ignored=0</text></symbol><symbol id="16"><text y="1.67" class="f">guillermo@pop-os</text><text x="16.032" y="1.67" class="g">:</text><text x="17.034" y="1.67" class="h">~/Downloads/Advanced_Engine_Management_Guillermo</text><text x="65.13" y="1.67" class="g">$</text></symbol><symbol id="a"><path fill="transparent" d="M0 0h140v37H0z"/></symbol></defs><path class="a" d="M0 0h140v80.327H0z"/><g style="animation-duration:18.861513000000002s;animation-iteration-count:infinite;animation-name:l;animation-timing-function:steps(1,end)"><svg width="3360"><svg><use xlink:href="#a"/><use xlink:href="#1"/><use xlink:href="#2" y="2.171"/></svg><svg x="140"><use xlink:href="#a"/><use xlink:href="#1"/><use xlink:href="#2" y="2.171"/><use xlink:href="#3" y="4.342"/></svg><svg x="280"><use xlink:href="#a"/><use xlink:href="#1"/><use xlink:href="#2" y="2.171"/><use xlink:href="#3" y="4.342"/><use xlink:href="#4" y="6.513"/></svg><svg x="420"><use xlink:href="#a"/><use xlink:href="#1"/><use xlink:href="#2" y="2.171"/><use xlink:href="#3" y="4.342"/><use xlink:href="#4" y="6.513"/><use xlink:href="#5" y="10.855"/></svg><svg x="560"><use xlink:href="#a"/><use xlink:href="#1"/><use xlink:href="#2" y="2.171"/><use xlink:href="#3" y="4.342"/><use xlink:href="#4" y="6.513"/><use xlink:href="#5" y="10.855"/><use xlink:href="#6" y="15.197"/></svg><svg x="700"><use xlink:href="#a"/><use xlink:href="#1"/><use xlink:href="#2" y="2.171"/><use xlink:href="#3" y="4.342"/><use xlink:href="#4" y="6.513"/><use xlink:href="#5" y="10.855"/><use xlink:href="#6" y="15.197"/><use xlink:href="#7" y="17.368"/></svg><svg x="840"><use xlink:href="#a"/><use xlink:href="#1"/><use xlink:href="#2" y="2.171"/><use xlink:href="#3" y="4.342"/><use xlink:href="#4" y="6.513"/><use xlink:href="#5" y="10.855"/><use xlink:href="#6" y="15.197"/><use xlink:href="#7" y="17.368"/><use xlink:href="#8" y="21.71"/></svg><svg x="980"><use xlink:href="#a"/><use xlink:href="#1"/><use xlink:href="#2" y="2.171"/><use xlink:href="#3" y="4.342"/><use xlink:href="#4" y="6.513"/><use xlink:href="#5" y="10.855"/><use xlink:href="#6" y="15.197"/><use xlink:href="#7" y="17.368"/><use xlink:href="#8" y="21.71"/><use xlink:href="#7" y="23.881"/></svg><svg x="1120"><use xlink:href="#a"/><use xlink:href="#1"/><use xlink:href="#2" y="2.171"/><use xlink:href="#3" y="4.342"/><use xlink:href="#4" y="6.513"/><use xlink:href="#5" y="10.855"/><use xlink:href="#6" y="15.197"/><use xlink:href="#7" y="17.368"/><use xlink:href="#8" y="21.71"/><use xlink:href="#7" y="23.881"/><use xlink:href="#9" y="28.223"/></svg><svg x="1260"><use xlink:href="#a"/><use xlink:href="#1"/><use xlink:href="#2" y="2.171"/><use xlink:href="#3" y="4.342"/><use xlink:href="#4" y="6.513"/><use xlink:href="#5" y="10.855"/><use xlink:href="#6" y="15.197"/><use xlink:href="#7" y="17.368"/><use xlink:href="#8" y="21.71"/><use xlink:href="#7" y="23.881"/><use xlink:href="#9" y="28.223"/><use xlink:href="#7" y="30.394"/></svg><svg x="1400"><use xlink:href="#a"/><use xlink:href="#1"/><use xlink:href="#2" y="2.171"/><use xlink:href="#3" y="4.342"/><use xlink:href="#4" y="6.513"/><use xlink:href="#5" y="10.855"/><use xlink:href="#6" y="15.197"/><use xlink:href="#7" y="17.368"/><use xlink:href="#8" y="21.71"/><use xlink:href="#7" y="23.881"/><use xlink:href="#9" y="28.223"/><use xlink:href="#7" y="30.394"/><use xlink:href="#10" y="34.736"/></svg><svg x="1540"><use xlink:href="#a"/><use xlink:href="#1"/><use xlink:href="#2" y="2.171"/><use xlink:href="#3" y="4.342"/><use xlink:href="#4" y="6.513"/><use xlink:href="#5" y="10.855"/><use xlink:href="#6" y="15.197"/><use xlink:href="#7" y="17.368"/><use xlink:href="#8" y="21.71"/><use xlink:href="#7" y="23.881"/><use xlink:href="#9" y="28.223"/><use xlink:href="#7" y="30.394"/><use xlink:href="#10" y="34.736"/></svg><svg x="1680"><use xlink:href="#a"/><use xlink:href="#1"/><use xlink:href="#2" y="2.171"/><use xlink:href="#3" y="4.342"/><use xlink:href="#4" y="6.513"/><use xlink:href="#5" y="10.855"/><use xlink:href="#6" y="15.197"/><use xlink:href="#7" y="17.368"/><use xlink:href="#8" y="21.71"/><use xlink:href="#7" y="23.881"/><use xlink:href="#9" y="28.223"/><use xlink:href="#7" y="30.394"/><use xlink:href="#10" y="34.736"/><use xlink:href="#7" y="36.907"/></svg><svg x="1820"><use xlink:href="#a"/><use xlink:href="#1"/><use xlink:href="#2" y="2.171"/><use xlink:href="#3" y="4.342"/><use xlink:href="#4" y="6.513"/><use xlink:href="#5" y="10.855"/><use xlink:href="#6" y="15.197"/><use xlink:href="#7" y="17.368"/><use xlink:href="#8" y="21.71"/><use xlink:href="#7" y="23.881"/><use xlink:href="#9" y="28.223"/><use xlink:href="#7" y="30.394"/><use xlink:href="#10" y="34.736"/><use xlink:href="#7" y="36.907"/><use xlink:href="#11" y="41.249"/></svg><svg x="1960"><use xlink:href="#a"/><use xlink:href="#1"/><use xlink:href="#2" y="2.171"/><use xlink:href="#3" y="4.342"/><use xlink:href="#4" y="6.513"/><use xlink:href="#5" y="10.855"/><use xlink:href="#6" y="15.197"/><use xlink:href="#7" y="17.368"/><use xlink:href="#8" y="21.71"/><use xlink:href="#7" y="23.881"/><use xlink:href="#9" y="28.223"/><use xlink:href="#7" y="30.394"/><use xlink:href="#10" y="34.736"/><use xlink:href="#7" y="36.907"/><use xlink:href="#11" y="41.249"/><use xlink:href="#7" y="43.42"/></svg><svg x="2100"><use xlink:href="#a"/><use xlink:href="#1"/><use xlink:href="#2" y="2.171"/><use xlink:href="#3" y="4.342"/><use xlink:href="#4" y="6.513"/><use xlink:href="#5" y="10.855"/><use xlink:href="#6" y="15.197"/><use xlink:href="#7" y="17.368"/><use xlink:href="#8" y="21.71"/><use xlink:href="#7" y="23.881"/><use xlink:href="#9" y="28.223"/><use xlink:href="#7" y="30.394"/><use xlink:href="#10" y="34.736"/><use xlink:href="#7" y="36.907"/><use xlink:href="#11" y="41.249"/><use xlink:href="#7" y="43.42"/><use xlink:href="#12" y="47.762"/></svg><svg x="2240"><use xlink:href="#a"/><use xlink:href="#1"/><use xlink:href="#2" y="2.171"/><use xlink:href="#3" y="4.342"/><use xlink:href="#4" y="6.513"/><use xlink:href="#5" y="10.855"/><use xlink:href="#6" y="15.197"/><use xlink:href="#7" y="17.368"/><use xlink:href="#8" y="21.71"/><use xlink:href="#7" y="23.881"/><use xlink:href="#9" y="28.223"/><use xlink:href="#7" y="30.394"/><use xlink:href="#10" y="34.736"/><use xlink:href="#7" y="36.907"/><use xlink:href="#11" y="41.249"/><use xlink:href="#7" y="43.42"/><use xlink:href="#12" y="47.762"/><use xlink:href="#7" y="49.933"/></svg><svg x="2380"><use xlink:href="#a"/><use xlink:href="#1"/><use xlink:href="#2" y="2.171"/><use xlink:href="#3" y="4.342"/><use xlink:href="#4" y="6.513"/><use xlink:href="#5" y="10.855"/><use xlink:href="#6" y="15.197"/><use xlink:href="#7" y="17.368"/><use xlink:href="#8" y="21.71"/><use xlink:href="#7" y="23.881"/><use xlink:href="#9" y="28.223"/><use xlink:href="#7" y="30.394"/><use xlink:href="#10" y="34.736"/><use xlink:href="#7" y="36.907"/><use xlink:href="#11" y="41.249"/><use xlink:href="#7" y="43.42"/><use xlink:href="#12" y="47.762"/><use xlink:href="#7" y="49.933"/><use xlink:href="#13" y="54.275"/></svg><svg x="2520"><use xlink:href="#a"/><use xlink:href="#1"/><use xlink:href="#2" y="2.171"/><use xlink:href="#3" y="4.342"/><use xlink:href="#4" y="6.513"/><use xlink:href="#5" y="10.855"/><use xlink:href="#6" y="15.197"/><use xlink:href="#7" y="17.368"/><use xlink:href="#8" y="21.71"/><use xlink:href="#7" y="23.881"/><use xlink:href="#9" y="28.223"/><use xlink:href="#7" y="30.394"/><use xlink:href="#10" y="34.736"/><use xlink:href="#7" y="36.907"/><use xlink:href="#11" y="41.249"/><use xlink:href="#7" y="43.42"/><use xlink:href="#12" y="47.762"/><use xlink:href="#7" y="49.933"/><use xlink:href="#13" y="54.275"/><use xlink:href="#7" y="56.446"/></svg><svg x="2660"><use xlink:href="#a"/><use xlink:href="#1"/><use xlink:href="#2" y="2.171"/><use xlink:href="#3" y="4.342"/><use xlink:href="#4" y="6.513"/><use xlink:href="#5" y="10.855"/><use xlink:href="#6" y="15.197"/><use xlink:href="#7" y="17.368"/><use xlink:href="#8" y="21.71"/><use xlink:href="#7" y="23.881"/><use xlink:href="#9" y="28.223"/><use xlink:href="#7" y="30.394"/><use xlink:href="#10" y="34.736"/><use xlink:href="#7" y="36.907"/><use xlink:href="#11" y="41.249"/><use xlink:href="#7" y="43.42"/><use xlink:href="#12" y="47.762"/><use xlink:href="#7" y="49.933"/><use xlink:href="#13" y="54.275"/><use xlink:href="#7" y="56.446"/><use xlink:href="#14" y="60.788"/></svg><svg x="2800"><use xlink:href="#a"/><use xlink:href="#1"/><use xlink:href="#2" y="2.171"/><use xlink:href="#3" y="4.342"/><use xlink:href="#4" y="6.513"/><use xlink:href="#5" y="10.855"/><use xlink:href="#6" y="15.197"/><use xlink:href="#7" y="17.368"/><use xlink:href="#8" y="21.71"/><use xlink:href="#7" y="23.881"/><use xlink:href="#9" y="28.223"/><use xlink:href="#7" y="30.394"/><use xlink:href="#10" y="34.736"/><use xlink:href="#7" y="36.907"/><use xlink:href="#11" y="41.249"/><use xlink:href="#7" y="43.42"/><use xlink:href="#12" y="47.762"/><use xlink:href="#7" y="49.933"/><use xlink:href="#13" y="54.275"/><use xlink:href="#7" y="56.446"/><use xlink:href="#14" y="60.788"/><use xlink:href="#15" y="62.959"/></svg><svg x="2940"><use xlink:href="#a"/><use xlink:href="#1"/><use xlink:href="#2" y="2.171"/><use xlink:href="#3" y="4.342"/><use xlink:href="#4" y="6.513"/><use xlink:href="#5" y="10.855"/><use xlink:href="#6" y="15.197"/><use xlink:href="#7" y="17.368"/><use xlink:href="#8" y="21.71"/><use xlink:href="#7" y="23.881"/><use xlink:href="#9" y="28.223"/><use xlink:href="#7" y="30.394"/><use xlink:href="#10" y="34.736"/><use xlink:href="#7" y="36.907"/><use xlink:href="#11" y="41.249"/><use xlink:href="#7" y="43.42"/><use xlink:href="#12" y="47.762"/><use xlink:href="#7" y="49.933"/><use xlink:href="#13" y="54.275"/><use xlink:href="#7" y="56.446"/><use xlink:href="#14" y="60.788"/><use xlink:href="#15" y="62.959"/></svg><svg x="3080"><use xlink:href="#a"/><use xlink:href="#1"/><use xlink:href="#2" y="2.171"/><use xlink:href="#3" y="4.342"/><use xlink:href="#4" y="6.513"/><use xlink:href="#5" y="10.855"/><use xlink:href="#6" y="15.197"/><use xlink:href="#7" y="17.368"/><use xlink:href="#8" y="21.71"/><use xlink:href="#7" y="23.881"/><use xlink:href="#9" y="28.223"/><use xlink:href="#7" y="30.394"/><use xlink:href="#10" y="34.736"/><use xlink:href="#7" y="36.907"/><use xlink:href="#11" y="41.249"/><use xlink:href="#7" y="43.42"/><use xlink:href="#12" y="47.762"/><use xlink:href="#7" y="49.933"/><use xlink:href="#13" y="54.275"/><use xlink:href="#7" y="56.446"/><use xlink:href="#14" y="60.788"/><use xlink:href="#15" y="62.959"/><use xlink:href="#16" y="67.301"/></svg><svg x="3220"><use xlink:href="#a"/><use xlink:href="#1"/><use xlink:href="#2" y="2.171"/><use xlink:href="#3" y="4.342"/><use xlink:href="#4" y="6.513"/><use xlink:href="#5" y="10.855"/><use xlink:href="#6" y="15.197"/><use xlink:href="#7" y="17.368"/><use xlink:href="#8" y="21.71"/><use xlink:href="#7" y="23.881"/><use xlink:href="#9" y="28.223"/><use xlink:href="#7" y="30.394"/><use xlink:href="#10" y="34.736"/><use xlink:href="#7" y="36.907"/><use xlink:href="#11" y="41.249"/><use xlink:href="#7" y="43.42"/><use xlink:href="#12" y="47.762"/><use xlink:href="#7" y="49.933"/><use xlink:href="#13" y="54.275"/><use xlink:href="#7" y="56.446"/><use xlink:href="#14" y="60.788"/><use xlink:href="#15" y="62.959"/><use xlink:href="#16" y="67.301"/><text y="71.142" class="g">exit</text></svg></svg></g></g></svg></svg>